<svg id='profilepic' viewBox="0 0 100 100" fill="none" xmlns="http://www.w3.org/2000/svg">
<g id="Photo">
<rect id="background" width="100" height="100" rx="20" fill="#EFEFEF"/>
<path id="ProfileSVG" d="M50 45.7143C52.9667 45.7143 55.8668 44.9602 58.3336 43.5475C60.8003 42.1347 62.7229 40.1267 63.8582 37.7774C64.9935 35.428 65.2906 32.8429 64.7118 30.3488C64.133 27.8548 62.7044 25.5639 60.6066 23.7658C58.5088 21.9677 55.8361 20.7431 52.9264 20.2471C50.0166 19.751 47.0006 20.0056 44.2597 20.9787C41.5189 21.9518 39.1762 23.5998 37.528 25.7141C35.8797 27.8284 35 30.3142 35 32.8571C35 36.2671 36.5804 39.5373 39.3934 41.9485C42.2064 44.3597 46.0218 45.7143 50 45.7143ZM50 24.2857C51.9778 24.2857 53.9112 24.7884 55.5557 25.7303C57.2002 26.6721 58.4819 28.0108 59.2388 29.577C59.9957 31.1432 60.1937 32.8667 59.8079 34.5294C59.422 36.192 58.4696 37.7193 57.0711 38.9181C55.6725 40.1168 53.8907 40.9331 51.9509 41.2639C50.0111 41.5946 48.0004 41.4249 46.1732 40.7761C44.3459 40.1274 42.7841 39.0287 41.6853 37.6192C40.5865 36.2096 40 34.5524 40 32.8571C40 30.5839 41.0536 28.4037 42.9289 26.7962C44.8043 25.1888 47.3478 24.2857 50 24.2857ZM50 50C43.3696 50 37.0107 52.2576 32.3223 56.2763C27.6339 60.2949 25 65.7454 25 71.4286V77.8571C25 78.4255 25.2634 78.9705 25.7322 79.3724C26.2011 79.7742 26.837 80 27.5 80C28.163 80 28.7989 79.7742 29.2678 79.3724C29.7366 78.9705 30 78.4255 30 77.8571V71.4286C30 66.882 32.1071 62.5217 35.8579 59.3067C39.6086 56.0918 44.6957 54.2857 50 54.2857C55.3043 54.2857 60.3914 56.0918 64.1421 59.3067C67.8929 62.5217 70 66.882 70 71.4286V77.8571C70 78.4255 70.2634 78.9705 70.7322 79.3724C71.2011 79.7742 71.837 80 72.5 80C73.163 80 73.7989 79.7742 74.2678 79.3724C74.7366 78.9705 75 78.4255 75 77.8571V71.4286C75 65.7454 72.3661 60.2949 67.6777 56.2763C62.9893 52.2576 56.6304 50 50 50Z" fill="#686A67"/>
</g>
</svg>
